<svg width="208" height="149" viewBox="0 0 208 149" fill="none" xmlns="http://www.w3.org/2000/svg">
<rect x="64" width="80" height="80" rx="20" fill="#3F1D9D"/>
<rect x="132.148" y="34.5679" width="11.8519" height="57.284" rx="3" transform="rotate(90 132.148 34.5679)" fill="url(#paint0_linear)"/>
<rect x="83.7532" y="16.7901" width="11.8519" height="46.4198" rx="5.92593" fill="url(#paint1_linear)"/>
<rect x="112.395" y="16.7901" width="11.8519" height="46.4198" rx="5.92593" fill="url(#paint2_linear)"/>
<path d="M80.79 46.4197L83.753 34.5679V46.4197H80.79Z" fill="#9C084D" fill-opacity="0.8"/>
<path d="M109.432 46.4197L112.395 34.5679V46.4197H109.432Z" fill="#9C084D" fill-opacity="0.8"/>
<path d="M51.4609 99.9746H46.0703V103.363H52.4375V106H42.6426V91.7812H52.457V94.4277H46.0703V97.4258H51.4609V99.9746ZM59.6348 106C59.5176 105.785 59.4134 105.469 59.3223 105.053C58.7168 105.814 57.8704 106.195 56.7832 106.195C55.7871 106.195 54.9408 105.896 54.2441 105.297C53.5475 104.691 53.1992 103.933 53.1992 103.021C53.1992 101.876 53.6224 101.01 54.4688 100.424C55.3151 99.8379 56.5456 99.5449 58.1602 99.5449H59.1758V98.9883C59.1758 98.0182 58.7559 97.5332 57.916 97.5332C57.1348 97.5332 56.7441 97.9173 56.7441 98.6855H53.4531C53.4531 97.6634 53.8861 96.8333 54.752 96.1953C55.6243 95.5573 56.7344 95.2383 58.082 95.2383C59.4297 95.2383 60.4941 95.5671 61.2754 96.2246C62.0566 96.8822 62.457 97.7839 62.4766 98.9297V103.607C62.4896 104.577 62.6393 105.32 62.9258 105.834V106H59.6348ZM57.5742 103.852C57.9844 103.852 58.3229 103.764 58.5898 103.588C58.8633 103.412 59.0586 103.214 59.1758 102.992V101.303H58.2188C57.0729 101.303 56.5 101.817 56.5 102.846C56.5 103.145 56.6009 103.389 56.8027 103.578C57.0046 103.76 57.2617 103.852 57.5742 103.852ZM69.8398 103.031C69.8398 102.751 69.6934 102.527 69.4004 102.357C69.1074 102.188 68.5508 102.012 67.7305 101.83C66.9102 101.648 66.2331 101.41 65.6992 101.117C65.1654 100.818 64.7585 100.456 64.4785 100.033C64.1986 99.61 64.0586 99.125 64.0586 98.5781C64.0586 97.6081 64.459 96.8105 65.2598 96.1855C66.0605 95.554 67.1087 95.2383 68.4043 95.2383C69.7975 95.2383 70.9173 95.554 71.7637 96.1855C72.61 96.8171 73.0332 97.6471 73.0332 98.6758H69.7324C69.7324 97.8294 69.2865 97.4062 68.3945 97.4062C68.0495 97.4062 67.7598 97.5039 67.5254 97.6992C67.291 97.888 67.1738 98.1257 67.1738 98.4121C67.1738 98.7051 67.3171 98.9427 67.6035 99.125C67.89 99.3073 68.3457 99.457 68.9707 99.5742C69.6022 99.6914 70.1556 99.8314 70.6309 99.9941C72.2194 100.541 73.0137 101.521 73.0137 102.934C73.0137 103.897 72.584 104.682 71.7246 105.287C70.8717 105.893 69.765 106.195 68.4043 106.195C67.4993 106.195 66.6921 106.033 65.9824 105.707C65.2728 105.382 64.7194 104.939 64.3223 104.379C63.9251 103.819 63.7266 103.23 63.7266 102.611H66.8027C66.8158 103.1 66.9785 103.458 67.291 103.686C67.6035 103.907 68.0039 104.018 68.4922 104.018C68.9414 104.018 69.2767 103.926 69.498 103.744C69.7259 103.562 69.8398 103.324 69.8398 103.031ZM78.7852 101.391L80.543 95.4336H84.0684L79.7617 107.768L79.5762 108.217C78.9642 109.584 77.8835 110.268 76.334 110.268C75.9043 110.268 75.4518 110.202 74.9766 110.072V107.719H75.4062C75.8685 107.719 76.2201 107.65 76.4609 107.514C76.7083 107.383 76.8906 107.146 77.0078 106.801L77.2715 106.098L73.5996 95.4336H77.1152L78.7852 101.391ZM96.7246 104.242C96.1973 104.828 95.4258 105.3 94.4102 105.658C93.3945 106.016 92.2812 106.195 91.0703 106.195C89.2083 106.195 87.7207 105.626 86.6074 104.486C85.4941 103.347 84.8984 101.762 84.8203 99.7305L84.8105 98.5C84.8105 97.1003 85.0579 95.8796 85.5527 94.8379C86.0475 93.7897 86.7539 92.9857 87.6719 92.4258C88.5964 91.8594 89.6641 91.5762 90.875 91.5762C92.6458 91.5762 94.0195 91.9831 94.9961 92.7969C95.9792 93.6042 96.5521 94.8118 96.7148 96.4199H93.4141C93.2969 95.6257 93.043 95.0592 92.6523 94.7207C92.2617 94.3822 91.7083 94.2129 90.9922 94.2129C90.1328 94.2129 89.4688 94.5775 89 95.3066C88.5312 96.0358 88.2936 97.0775 88.2871 98.4316V99.291C88.2871 100.71 88.528 101.778 89.0098 102.494C89.498 103.204 90.263 103.559 91.3047 103.559C92.1966 103.559 92.8607 103.36 93.2969 102.963V100.756H90.9141V98.4023H96.7246V104.242ZM102.789 101.391L104.547 95.4336H108.072L103.766 107.768L103.58 108.217C102.968 109.584 101.887 110.268 100.338 110.268C99.9082 110.268 99.4557 110.202 98.9805 110.072V107.719H99.4102C99.8724 107.719 100.224 107.65 100.465 107.514C100.712 107.383 100.895 107.146 101.012 106.801L101.275 106.098L97.6035 95.4336H101.119L102.789 101.391ZM112.047 95.4336L112.154 96.6738C112.903 95.7168 113.909 95.2383 115.172 95.2383C116.507 95.2383 117.408 95.7689 117.877 96.8301C118.593 95.7689 119.628 95.2383 120.982 95.2383C123.124 95.2383 124.225 96.5339 124.283 99.125V106H120.982V99.3301C120.982 98.7897 120.891 98.3958 120.709 98.1484C120.527 97.901 120.195 97.7773 119.713 97.7773C119.062 97.7773 118.577 98.0671 118.258 98.6465L118.268 98.7832V106H114.967V99.3496C114.967 98.7962 114.879 98.3958 114.703 98.1484C114.527 97.901 114.192 97.7773 113.697 97.7773C113.066 97.7773 112.584 98.0671 112.252 98.6465V106H108.961V95.4336H112.047ZM137.818 101.186C137.773 102.175 137.506 103.051 137.018 103.812C136.529 104.568 135.842 105.154 134.957 105.57C134.078 105.987 133.072 106.195 131.939 106.195C130.071 106.195 128.6 105.587 127.525 104.369C126.451 103.152 125.914 101.433 125.914 99.2129V98.5098C125.914 97.1165 126.155 95.8991 126.637 94.8574C127.125 93.8092 127.825 93.002 128.736 92.4355C129.648 91.8626 130.702 91.5762 131.9 91.5762C133.626 91.5762 135.012 92.0319 136.061 92.9434C137.109 93.8483 137.704 95.0983 137.848 96.6934H134.43C134.404 95.8275 134.186 95.2057 133.775 94.8281C133.365 94.4505 132.74 94.2617 131.9 94.2617C131.048 94.2617 130.423 94.5807 130.025 95.2188C129.628 95.8568 129.42 96.8757 129.4 98.2754V99.2812C129.4 100.798 129.589 101.882 129.967 102.533C130.351 103.184 131.008 103.51 131.939 103.51C132.727 103.51 133.329 103.324 133.746 102.953C134.163 102.582 134.384 101.993 134.41 101.186H137.818ZM142.76 106H139.459V91H142.76V106ZM151.09 104.857C150.393 105.749 149.452 106.195 148.268 106.195C147.109 106.195 146.23 105.86 145.631 105.189C145.038 104.512 144.742 103.542 144.742 102.279V95.4336H148.033V102.299C148.033 103.204 148.473 103.656 149.352 103.656C150.107 103.656 150.644 103.386 150.963 102.846V95.4336H154.273V106H151.188L151.09 104.857ZM165.895 100.805C165.895 102.536 165.536 103.868 164.82 104.799C164.104 105.73 163.095 106.195 161.793 106.195C160.719 106.195 159.853 105.769 159.195 104.916L159.059 106H156.109V91H159.4V96.2832C160.012 95.5866 160.803 95.2383 161.773 95.2383C163.089 95.2383 164.104 95.7103 164.82 96.6543C165.536 97.5983 165.895 98.9264 165.895 100.639V100.805ZM162.594 100.6C162.594 99.584 162.457 98.8613 162.184 98.4316C161.917 97.9954 161.503 97.7773 160.943 97.7773C160.201 97.7773 159.687 98.0605 159.4 98.627V102.826C159.68 103.386 160.201 103.666 160.963 103.666C161.738 103.666 162.229 103.288 162.438 102.533C162.542 102.162 162.594 101.518 162.594 100.6Z" fill="url(#paint3_linear)"/>
<defs>
<linearGradient id="paint0_linear" x1="125.235" y1="13.3333" x2="148.938" y2="116.049" gradientUnits="userSpaceOnUse">
<stop stop-color="#F79964"/>
<stop offset="1" stop-color="#E73E90"/>
</linearGradient>
<linearGradient id="paint1_linear" x1="89.6791" y1="16.7901" x2="89.6791" y2="63.2099" gradientUnits="userSpaceOnUse">
<stop stop-color="#FBD72B"/>
<stop offset="1" stop-color="#F9484A"/>
</linearGradient>
<linearGradient id="paint2_linear" x1="118.321" y1="16.7901" x2="118.321" y2="63.2099" gradientUnits="userSpaceOnUse">
<stop stop-color="#FBD72B"/>
<stop offset="1" stop-color="#F9484A"/>
</linearGradient>
<linearGradient id="paint3_linear" x1="104" y1="87" x2="104" y2="149" gradientUnits="userSpaceOnUse">
<stop stop-color="#FBD72B"/>
<stop offset="1" stop-color="#F9484A"/>
</linearGradient>
</defs>
</svg>
